<svg width="96" height="96" viewBox="0 0 96 96" fill="none" xmlns="http://www.w3.org/2000/svg">
<rect width="96" height="96" fill="#FFD743"/>
<circle cx="48" cy="48" r="38.0625" fill="#FF349C"/>
<path fill-rule="evenodd" clip-rule="evenodd" d="M44.5122 24.9796C44.25 24.9191 43.9756 24.9405 43.7261 25.0411L25.0461 32.5689C24.9307 32.6154 24.8277 32.6738 24.7369 32.7414C24.2031 32.9109 23.8025 33.4167 23.8201 34.0314L24.6014 61.3101C24.6173 61.8673 24.9836 62.3537 25.5147 62.523L52.4763 71.1189C52.7568 71.2083 53.0391 71.1987 53.2915 71.1137C53.4978 71.1074 53.7082 71.0511 53.9072 70.9359L71.2094 60.9262C71.6074 60.6959 71.8559 60.2741 71.8644 59.8144L72.3691 32.5756C72.3807 31.9518 71.9701 31.4601 71.4426 31.296C71.3114 31.2057 71.1578 31.1365 70.9827 31.096L44.5122 24.9796ZM54.1875 41.76L70.0902 34.1179L69.6246 59.2436L54.1875 68.1744V41.76ZM26.107 35.2885L51.9375 41.9398V68.5855L26.8314 60.5812L26.107 35.2885ZM67.7934 32.6684L44.2933 27.2383L40.2063 28.8853L63.3228 34.825L67.7934 32.6684ZM36.6861 30.3039L28.6436 33.545L52.961 39.8236L60.1808 36.3408L36.6861 30.3039ZM31.875 40.875L32.1392 45.4144L37.2921 46.796L32.6677 60.0197L44.625 63.375L44.3607 58.8355L39.1418 57.4539L43.7662 44.3618L31.875 40.875Z" fill="white"/>
</svg>
